<svg id="Capa_1" enable-background="new 0 0 512 512" height="512" viewBox="0 0 512 512" width="512" xmlns="http://www.w3.org/2000/svg"><g><path d="m138.073 366.212h235.855c49.016-36.193 80.812-94.366 80.812-159.972 0-109.761-88.979-198.74-198.739-198.74s-198.74 88.979-198.74 198.739c0 65.607 31.796 123.779 80.812 159.973z" fill="#d3effb"/><path d="m256.001 7.5c-4.395 0-8.753.158-13.077.439 103.663 6.736 185.662 92.935 185.662 198.3 0 65.606-31.796 123.779-80.812 159.972h26.155c49.016-36.193 80.812-94.366 80.812-159.972-.001-109.76-88.98-198.739-198.74-198.739z" fill="#b1e4f9"/><path d="m138.073 366.212h235.855v47.656h-235.855z" fill="#407093"/><path d="m352.909 366.212h21.019v47.656h-21.019z" fill="#365e7d"/><path d="m428.982 504.5h-345.963c-6.623 0-11.405-6.34-9.586-12.708l20.198-70.693c1.223-4.28 5.135-7.231 9.586-7.231h305.568c4.451 0 8.363 2.951 9.586 7.231l20.198 70.693c1.818 6.369-2.964 12.708-9.587 12.708z" fill="#986b54"/><path d="m438.568 491.792-20.198-70.693c-1.223-4.28-5.135-7.231-9.586-7.231h-26.984c4.451 0 8.363 2.951 9.586 7.231l20.198 70.693c1.82 6.369-2.962 12.708-9.586 12.708h26.984c6.623 0 11.405-6.339 9.586-12.708z" fill="#845c47"/><circle cx="256.001" cy="260.524" fill="#f9f6f9" r="73.282"/><path d="m305.017 206.056c-.002-.002-.005-.004-.008-.006-16.417-14.78-38.419-21.212-59.921-17.995.005.001.01.002.015.003-14.54 2.17-27.685 8.604-38.118 17.999 13.616 10.348 30.595 16.5 49.016 16.5 7.726 0 15.197-1.083 22.273-3.103 8.929-2.549 18.461 1.791 22.379 10.21 4.365 9.378 6.804 19.834 6.804 30.862 0 36.764-27.073 67.199-62.369 72.469 3.561.532 7.204.813 10.913.813 40.473 0 73.282-32.81 73.282-73.282 0-21.626-9.371-41.056-24.266-54.47z" fill="#dddaec"/><circle cx="256.001" cy="141.459" fill="#f9f6f9" r="62.076"/><path d="m256.001 79.382c-3.331 0-6.598.27-9.786.775 29.633 4.694 52.29 30.349 52.29 61.302s-22.657 56.608-52.29 61.302c3.189.505 6.456.775 9.786.775 34.284 0 62.076-27.793 62.076-62.076 0-34.285-27.793-62.078-62.076-62.078z" fill="#dddaec"/><path d="m421.815 315.796c-17.874 2.784-22.032 11.1-46.808 11.1-29.754 0-29.754-12-59.508-12-29.753 0-29.753 12-59.505 12s-29.752-12-59.503-12c-29.75 0-29.75 12-59.501 12-24.774 0-28.932-8.315-46.803-11.099 12.898 19.479 29.125 36.562 47.887 50.416h235.855c18.761-13.855 34.987-30.938 47.886-50.417z" fill="#dddaec"/><path d="m347.774 366.212h26.155c18.762-13.854 34.988-30.937 47.887-50.416-14.004 2.181-19.591 7.757-33.27 10.07-11.576 15.329-25.315 28.932-40.772 40.346z" fill="#d0cee7"/><g><path d="m295.957 466.684c4.143 0 7.5-3.357 7.5-7.5s-3.357-7.5-7.5-7.5h-79.914c-4.143 0-7.5 3.357-7.5 7.5s3.357 7.5 7.5 7.5z"/><path d="m256 237.073c4.143 0 7.5-3.358 7.5-7.5v-3.407c0-4.142-3.357-7.5-7.5-7.5s-7.5 3.358-7.5 7.5v3.407c0 4.142 3.358 7.5 7.5 7.5z"/><path d="m256 266.733c4.143 0 7.5-3.357 7.5-7.5v-3.406c0-4.142-3.357-7.5-7.5-7.5s-7.5 3.358-7.5 7.5v3.406c0 4.142 3.358 7.5 7.5 7.5z"/><path d="m256 296.393c4.143 0 7.5-3.357 7.5-7.5v-3.406c0-4.143-3.357-7.5-7.5-7.5s-7.5 3.357-7.5 7.5v3.406c0 4.143 3.358 7.5 7.5 7.5z"/><path d="m178.606 68.906v-2.736c0-4.142-3.357-7.5-7.5-7.5s-7.5 3.358-7.5 7.5v2.735c0 4.142 3.357 7.5 7.5 7.5s7.5-3.357 7.5-7.499z"/><path d="m248.5 42.191v2.735c0 4.142 3.357 7.5 7.5 7.5s7.5-3.358 7.5-7.5v-2.735c0-4.142-3.357-7.5-7.5-7.5s-7.5 3.358-7.5 7.5z"/><path d="m103.438 269.392c4.143 0 7.5-3.357 7.5-7.5v-2.736c0-4.142-3.357-7.5-7.5-7.5s-7.5 3.358-7.5 7.5v2.736c0 4.143 3.357 7.5 7.5 7.5z"/><path d="m373.928 257.003c-4.143 0-7.5 3.357-7.5 7.5v2.736c0 4.143 3.357 7.5 7.5 7.5s7.5-3.357 7.5-7.5v-2.736c0-4.142-3.357-7.5-7.5-7.5z"/><path d="m417.473 233.127v-2.735c0-4.142-3.357-7.5-7.5-7.5s-7.5 3.358-7.5 7.5v2.735c0 4.142 3.357 7.5 7.5 7.5s7.5-3.357 7.5-7.5z"/><path d="m388.722 141.743c4.143 0 7.5-3.358 7.5-7.5v-2.735c0-4.142-3.357-7.5-7.5-7.5s-7.5 3.358-7.5 7.5v2.735c0 4.142 3.357 7.5 7.5 7.5z"/><path d="m338.519 79.015v2.735c0 4.142 3.357 7.5 7.5 7.5s7.5-3.358 7.5-7.5v-2.735c0-4.142-3.357-7.5-7.5-7.5s-7.5 3.358-7.5 7.5z"/><path d="m101.921 188.86v-2.736c0-4.142-3.357-7.5-7.5-7.5s-7.5 3.358-7.5 7.5v2.736c0 4.142 3.357 7.5 7.5 7.5s7.5-3.358 7.5-7.5z"/><path d="m158.483 138.469v2.736c0 4.142 3.357 7.5 7.5 7.5s7.5-3.358 7.5-7.5v-2.736c0-4.142-3.357-7.5-7.5-7.5s-7.5 3.358-7.5 7.5z"/><path d="m159.821 251.194v-2.735c0-4.142-3.357-7.5-7.5-7.5s-7.5 3.358-7.5 7.5v2.735c0 4.142 3.357 7.5 7.5 7.5s7.5-3.358 7.5-7.5z"/><path d="m114.613 113.188v2.736c0 4.142 3.357 7.5 7.5 7.5s7.5-3.358 7.5-7.5v-2.736c0-4.142-3.357-7.5-7.5-7.5s-7.5 3.358-7.5 7.5z"/><path d="m242.482 138.837v-6.961c0-4.142-3.357-7.5-7.5-7.5s-7.5 3.358-7.5 7.5v6.961c0 4.142 3.357 7.5 7.5 7.5s7.5-3.358 7.5-7.5z"/><path d="m284.519 138.837v-6.961c0-4.142-3.357-7.5-7.5-7.5s-7.5 3.358-7.5 7.5v6.961c0 4.142 3.357 7.5 7.5 7.5s7.5-3.358 7.5-7.5z"/><path d="m425.582 419.04c-2.132-7.461-9.039-12.672-16.798-12.672h-27.356v-36.441c24.293-18.653 44.221-42.635 57.951-69.232 14.955-28.972 22.86-61.634 22.86-94.456 0-55.265-21.574-107.175-60.749-146.168-2.937-2.923-7.685-2.912-10.606.024-2.922 2.936-2.911 7.685.024 10.606 36.325 36.158 56.331 84.293 56.331 135.538 0 30.873-7.129 60.338-21.189 87.576-2.682 5.195-5.622 10.261-8.778 15.194-6.257 1.3-11.03 3.211-15.304 4.933-7.264 2.927-13.537 5.454-26.962 5.454-13.422 0-19.69-2.528-26.948-5.456-6.596-2.66-13.964-5.624-26.454-6.365 9.538-13.261 15.178-29.505 15.178-47.051 0-9.46-1.615-18.611-4.635-27.156l20.97-22.674 13.441 3.841c.688.197 1.382.291 2.064.291 3.264 0 6.267-2.147 7.207-5.441 1.139-3.983-1.168-8.134-5.15-9.272l-6.15-1.757 9.596-10.375c2.812-3.041 2.628-7.786-.413-10.599-3.043-2.812-7.787-2.627-10.599.414l-37.873 40.951c-5.892-9.77-13.871-18.269-23.56-24.872 14.628-12.764 23.898-31.522 23.898-52.415 0-38.364-31.212-69.576-69.577-69.576-38.364 0-69.576 31.212-69.576 69.576 0 2.651.169 5.423.501 8.237.485 4.115 4.218 7.052 8.328 6.569 4.113-.486 7.054-4.214 6.568-8.328-.268-2.264-.397-4.383-.397-6.478 0-30.093 24.482-54.576 54.576-54.576s54.577 24.483 54.577 54.576c0 30.094-24.483 54.577-54.577 54.577-17.713 0-34.398-8.668-44.632-23.187-2.384-3.386-7.064-4.195-10.451-1.81-3.385 2.386-4.195 7.065-1.809 10.451 3.253 4.616 7.019 8.768 11.19 12.4-9.679 6.601-17.65 15.093-23.538 24.855l-37.872-40.95c-2.811-3.042-7.556-3.227-10.599-.414-3.041 2.812-3.226 7.558-.413 10.599l9.596 10.375-6.15 1.757c-3.982 1.138-6.289 5.289-5.15 9.272.94 3.294 3.943 5.441 7.207 5.441.683 0 1.376-.094 2.064-.291l13.441-3.841 20.969 22.673c-3.021 8.545-4.636 17.696-4.636 27.157 0 17.545 5.64 33.789 15.178 47.05-12.495.74-19.865 3.705-26.462 6.367-7.258 2.927-13.525 5.455-26.944 5.455-13.423 0-19.696-2.527-26.959-5.454-4.273-1.722-9.045-3.633-15.3-4.933-3.157-4.933-6.097-9.999-8.78-15.194-14.061-27.238-21.189-56.703-21.189-87.576-.001-105.449 85.789-191.239 191.238-191.239 40.933 0 79.976 12.755 112.906 36.888 3.343 2.448 8.033 1.725 10.483-1.617 2.448-3.341 1.725-8.034-1.617-10.483-35.52-26.029-77.628-39.788-121.772-39.788-113.72 0-206.239 92.519-206.239 206.239 0 32.822 7.905 65.484 22.861 94.457 13.741 26.619 33.682 50.597 57.951 69.231v36.441h-27.356c-7.759 0-14.666 5.211-16.798 12.671l-20.196 70.692c-1.521 5.319-.482 10.902 2.849 15.319 3.332 4.417 8.415 6.95 13.947 6.95h67.97c4.143 0 7.5-3.357 7.5-7.5s-3.357-7.5-7.5-7.5h-67.97c-1.07 0-1.694-.615-1.971-.982s-.697-1.136-.402-2.165l20.197-70.694c.301-1.055 1.277-1.791 2.374-1.791h305.567c1.097 0 2.073.736 2.374 1.792l20.197 70.693c.295 1.029-.126 1.799-.402 2.165-.277.367-.901.982-1.972.982h-248.005c-4.143 0-7.5 3.357-7.5 7.5s3.357 7.5 7.5 7.5h248.006c5.532 0 10.615-2.533 13.946-6.949 3.332-4.416 4.371-10 2.852-15.319zm-201.732-215.907c9.802 5.116 20.81 7.902 32.15 7.902 11.594 0 22.525-2.866 32.149-7.903 21.048 11.765 33.633 33.55 33.633 57.392 0 36.272-29.51 65.782-65.782 65.782s-65.782-29.51-65.782-65.782c0-23.926 12.66-45.668 33.632-57.391zm-113.454 127.026c6.407 2.275 14.326 4.237 26.593 4.237 16.33 0 24.95-3.477 32.556-6.544 7.258-2.928 13.525-5.456 26.945-5.456 2.897 0 5.558.127 8.083.378 13.98 11.57 31.905 18.532 51.427 18.532 19.523 0 37.449-6.963 51.429-18.533 2.519-.25 5.176-.377 8.069-.377 13.422 0 19.69 2.528 26.948 5.456 7.606 3.067 16.228 6.544 32.56 6.544 12.273 0 20.193-1.963 26.601-4.239-8.998 10.56-19.124 20.171-30.174 28.554h-230.863c-11.05-8.382-21.176-17.992-30.174-28.552zm35.177 76.209v-32.656h220.854v32.656z"/></g></g></svg>